<svg xmlns="http://www.w3.org/2000/svg" viewBox="0 0 100 100" width="100" height="100">
	<style>
		tspan { white-space:pre }
		.shp0 { fill: #000000 } 
	</style>
	<g id="Layer">
		<path id="Layer" class="shp0" d="M51.8 22.6L30.6 39.6C30.2 39.9 29.8 40 29.4 40L17 40C15.9 40 15 40.9 15 42L15 58C15 59.1 15.9 60 17 60L29.3 60C29.8 60 30.2 60.2 30.5 60.4L51.7 77.4C53 78.4 54.9 77.5 54.9 75.8L54.9 24.2C55 22.5 53.1 21.6 51.8 22.6Z" />
		<path id="Layer" class="shp0" d="M64.5 38C63.7 37.2 62.5 37.2 61.7 38C60.9 38.8 60.9 40 61.7 40.8C64.2 43.3 65.5 46.5 65.5 50C65.5 53.5 64.1 56.7 61.7 59.2C60.9 60 60.9 61.2 61.7 62C62.1 62.4 62.6 62.6 63.1 62.6C63.6 62.6 64.1 62.4 64.5 62C67.7 58.8 69.5 54.5 69.5 50C69.5 45.5 67.7 41.2 64.5 38Z" />
		<path id="Layer" class="shp0" d="M69.8 32.7C69 31.9 67.8 31.9 67 32.7C66.2 33.5 66.2 34.7 67 35.5C70.9 39.4 73 44.5 73 50C73 55.5 70.9 60.6 67 64.5C66.2 65.3 66.2 66.5 67 67.3C67.4 67.7 67.9 67.9 68.4 67.9C68.9 67.9 69.4 67.7 69.8 67.3C74.5 62.7 77 56.5 77 50C77 43.5 74.5 37.3 69.8 32.7Z" />
		<path id="Layer" class="shp0" d="M75 27.4C74.2 26.6 73 26.6 72.2 27.4C71.4 28.2 71.4 29.4 72.2 30.2C77.5 35.5 80.4 42.5 80.4 50C80.4 57.5 77.5 64.5 72.2 69.8C71.4 70.6 71.4 71.8 72.2 72.6C72.6 73 73.1 73.2 73.6 73.2C74.1 73.2 74.6 73 75 72.6C81 66.6 84.4 58.5 84.4 50C84.4 41.5 81.1 33.4 75 27.4Z" />
	</g>
</svg>